<?xml version="1.0" encoding="utf-8"?>
<!-- Generator: Adobe Illustrator 16.2.0, SVG Export Plug-In . SVG Version: 6.00 Build 0)  -->
<!DOCTYPE svg PUBLIC "-//W3C//DTD SVG 1.1//EN" "http://www.w3.org/Graphics/SVG/1.1/DTD/svg11.dtd">
<svg version="1.1" id="Слой_1" xmlns="http://www.w3.org/2000/svg" xmlns:xlink="http://www.w3.org/1999/xlink" x="0px" y="0px"
	 width="40px" height="40px" viewBox="0 0 40 40" enable-background="new 0 0 40 40" xml:space="preserve">
<g>
	<g>
		<path fill="#FFFFFF" d="M2.8,36.7c0.4-0.2,0.7-0.3,0.8-0.3c0.1,0,0.7-0.1,1.6-0.3L6,35.9h0.5c0.1,0,0.4-0.1,0.8-0.2
			c0,0.1,0.1,0.1,0.1,0.2c0.2,0.2,0.2,0.3,0.3,0.3c0.2,0,0.3-0.1,0.5-0.1c0-0.3,0.1-0.5,0.2-0.5c0.1,0,0.2-0.1,0.6-0.1
			c0.1,0,0.2,0,0.5-0.1L9.6,35c1,0,2-0.2,2.9-0.6c0.4,0.3,0.7,0.5,0.8,0.5c0.1,0,0.2-0.1,0.3-0.2c0.2-0.2,0.2-0.3,0.2-0.3v-0.3
			c0-0.1,0.1-0.1,0.2-0.2c0.2-0.1,0.4-0.2,0.7-0.2c0.2,0,0.5,0.2,0.7,0.4l0.7-0.1c0-0.1,0-0.1,0-0.1c0-0.2,0.1-0.4,0.2-0.7
			c0.2-0.1,0.6-0.2,0.8-0.4c0.2-0.1,0.4-0.2,0.5-0.3l3.6-1.1c0.7-0.2,1-0.3,1.1-0.3c0,0,0.2,0.1,0.7,0.2c0.2-0.3,0.5-0.5,0.8-0.8
			l0.4-0.2l0.7-0.2l0.8-0.3l0.5,1.6c0.5-0.8,0.8-1.4,1.1-1.8l0.1-0.5c0.6-0.1,1.1-0.3,1.4-0.3c0.2-0.1,1-0.3,2-0.8
			c0.7-0.1,1.1-0.3,1.5-0.3v-0.4l0.7-0.3v-0.1c-0.4-0.1-0.7-0.2-0.8-0.3c-0.4-0.2-0.8-0.3-1.1-0.3c-0.4,0-0.7-0.1-0.8-0.2l-2.6-0.8
			c-0.1,0-0.2-0.1-0.5-0.1c-0.4-0.1-0.7-0.2-0.7-0.2l-1.1-0.5l-0.6-0.2l-0.6-0.3c-1.5-0.3-2.2-0.5-2.3-0.6c-0.2-0.1-0.2-0.2-0.5-0.4
			c-0.2,0-0.3,0.1-0.3,0.1c-0.2,0-1.1-0.2-2.7-0.5c-0.4-0.1-1.1-0.3-2-0.8c-0.8-0.1-1.4-0.2-1.7-0.3c-1.7-0.6-3-0.9-3.7-0.8
			c-0.1,0-0.2,0-0.7,0.1L9.3,20l-0.7-0.5C8.3,18.9,8,18.5,8,18.5c-0.1,0-0.1,0.1-0.2,0.3c-0.2,0.7-0.4,1.4-0.5,2.2l-1.2-0.8
			c-0.2,0.3-0.4,0.3-0.6,0.3c-0.2,0-0.5-0.1-0.9-0.3c-0.2-0.1-0.3-0.3-0.6-0.5l-0.4-0.6c-0.5-0.6-0.7-0.9-0.8-0.9
			c-0.1-0.1-0.1-0.2-0.1-0.3l0,0v-0.1l0.7-0.8C3.9,18.4,4.3,19,4.7,19c0.2,0,0.5-0.3,1-0.8c0.2-0.2,0.6-0.5,1.2-0.9l0.8-0.8
			c0.1,0,0.2,0.1,0.5,0.3c0.4-0.1,0.7-0.3,1.1-0.5c0.5-0.4,0.7-0.6,0.7-0.7c0,0,0.2-0.1,0.7-0.3c0.2-0.1,0.8-0.3,2-0.6
			c1.1-0.2,1.6-0.3,1.7-0.3c0.2-0.1,0.3-0.2,0.7-0.4l0.1,0.1c0.1,0.7,0.2,1,0.3,1.1l0.2-0.1c0.2-0.2,0.5-0.2,1-0.2l1.1-1.1l0.9-0.5
			c0.2-0.3,0.4-0.3,0.6-0.3h0.1v0.2l0.1,0.1c0.2,0,0.4-0.1,0.5-0.1c0.3-0.1,0.7-0.2,1-0.3v-0.4c0.4-0.2,1.1-0.4,2.1-0.8l1.1-0.3
			l0.8-0.1c0.3-0.3,0.6-0.3,0.8-0.4c0.7-0.3,1.1-0.3,1.2-0.3c0.1,0,0.2,0,0.3,0.1c0.3,0.2,0.5,0.2,0.6,0.2c0.2,0,0.3-0.1,0.5-0.3
			c0.1-0.1,0.1-0.2,0.1-0.3c0-0.1,0-0.3-0.1-0.3c0.3-0.1,0.8-0.2,1.5-0.3c0.2,0,0.5-0.2,1-0.5c-0.1-0.1-0.2-0.3-0.3-0.3
			c-0.2-0.3-0.4-0.3-0.7-0.3c-0.2,0-0.3,0.1-0.6,0.3c-0.1-0.2-0.2-0.3-0.3-0.4c-0.2-0.1-0.7-0.3-1.5-0.5l-0.4,0.1l-0.7-0.2l-0.8-0.2
			l-0.4-0.3l-0.7-0.2L23,6.8l-2-0.4c-0.8-0.3-1.4-0.4-1.6-0.5c-0.2-0.1-0.5-0.3-0.7-0.4c-0.4,0-1.4-0.3-3-0.7c-1-0.2-1.6-0.3-2-0.5
			c-0.3-0.2-0.6-0.2-0.7-0.2c0,0-0.3,0.1-0.9,0.3l-1.1-0.4c-0.7-0.1-1.2-0.2-1.5-0.2c0-0.2,0-0.3,0-0.3c0-0.2-0.1-0.3-0.2-0.5
			c-0.2,0-0.5,0.2-0.7,0.6c-0.3,0-0.7-0.1-1.3-0.3h-1L5.7,3.1C5.2,3.1,4.8,3,4.7,2.9C3.8,2.6,3.3,2,3.1,1.3C2.7,1,2.5,0.8,2.5,0.6
			c0,0-0.1-0.2-0.2-0.5C2.5,0,2.5,0,2.6,0C2.7,0,2.9,0,3,0.1c0.2,0.1,0.7,0.1,1.1,0.1l0.5,0.2c0.5,0,0.8,0.1,1.1,0.2
			C6,0.6,6.2,0.8,6.6,1C6.7,1,6.9,0.9,7,0.9c0.1,0,0.2,0.1,0.6,0.2c0,0,0.1,0,0.2,0c0.1,0,0.2,0,0.3,0c0.2,0.2,0.4,0.3,0.6,0.3
			c0.1,0,0.2,0,0.2,0C9,1.6,9,1.8,9.1,1.8l0.7-0.1h0.1c0.2,0,0.4,0.1,0.8,0.3c0,0.2,0.1,0.4,0.2,0.6c0.1,0.2,0.2,0.3,0.2,0.3h0.2
			h0.3c0.3-0.3,0.6-0.4,0.6-0.4s0.2,0.1,0.7,0.3c0.1,0.1,0.2,0.1,0.5,0.2c1.1,0.3,1.8,0.5,2,0.5c0.2,0,0.7,0.2,1.3,0.4
			C17,3.8,17.2,4,17.4,4.2c0.2,0,0.2,0,0.3,0c0.2,0,0.3,0,0.6,0c0.3,0,0.5,0.1,0.6,0.1c0.2,0.1,0.2,0.2,0.4,0.4h0.3l2.5,0.6
			c0.9,0.2,1.6,0.3,1.7,0.3c0.3,0.1,0.7,0.3,1.3,0.5c0.2,0.3,0.3,0.6,0.6,0.6c0.2,0,0.4-0.2,0.6-0.4c0.3,0,0.7,0.1,1.1,0.3l0.9-0.2
			l0.2,0.3c0.2,0.1,0.8,0.3,2,0.7l1.1,0.1l1.2,0.3c0.1,0,0.2-0.1,0.3-0.2c0.2,0.3,0.3,0.4,0.4,0.4c0.1,0.1,0.2,0.2,0.7,0.3
			c0.3-0.3,0.5-0.3,0.7-0.3c0,0,0.3,0.1,0.9,0.2c0.5-0.1,0.8-0.1,0.8-0.1c0.1,0,0.3,0,0.7,0c0.2,0,0.3,0,0.6,0
			c0.2,0.3,0.2,0.4,0.3,0.5c0.2,0.5,0.5,0.8,0.7,0.9v0.3c-0.2,0.2-0.5,0.3-0.8,0.4L37,10.4l-0.5,0.2c-0.3,0.3-0.7,0.4-1.1,0.5
			c-0.2,0.1-0.3,0.1-0.3,0.1c-0.4,0.1-0.7,0.2-0.8,0.2c-0.1,0-0.3-0.1-0.6-0.3h-0.1v0.3c-0.1,0.1-0.2,0.2-0.5,0.4
			c-0.2,0.2-1.1,0.4-2.5,0.7c-1.1,0.1-1.9,0.2-2.1,0.3c-0.1,0.3-0.2,0.4-0.2,0.4c-0.1,0.1-0.6,0.2-1.5,0.3L25,13.9l-0.9,0.2
			c-0.1,0-0.7,0.3-1.7,0.7C22,14.9,21.6,15,21.3,15c-0.2,0-0.4,0.1-0.7,0.2c-0.2-0.3-0.4-0.3-0.6-0.3c-0.1,0-0.2,0-0.3,0.1
			c0.2,0.2,0.2,0.3,0.2,0.3s-0.2,0.3-0.5,0.3c-1.1,0.4-2,0.7-2.8,0.8c-0.2-0.3-0.2-0.3-0.4-0.3c0,0-0.2,0.1-0.4,0.3h-0.1
			c-0.1,0-0.2,0-0.4-0.1c0,0.3,0.1,0.6,0.2,1c-0.2,0.2-0.4,0.3-0.8,0.3c-0.3,0.1-1.1,0.4-2.5,0.8c-0.2,0.1-0.4,0.2-0.7,0.3l-0.5,0.2
			l-0.6,0.1c-0.1,0-0.2,0.2-0.5,0.4c0.3,0.3,0.6,0.3,0.7,0.4c0,0,0.6,0.1,1.6,0.3l0.7,0.3l0.7,0.1l0.3,0.2l0.7,0.1l0.7,0.4l1.3,0.3
			c0.6,0.3,0.9,0.4,1.1,0.5c0.7,0,1.3,0.1,1.8,0.3l2.5,0.7l2.6,0.6c0.9,0.3,1.5,0.4,1.6,0.4c0.1,0,0.2,0.2,0.5,0.4
			c0.7,0.2,1.3,0.3,1.6,0.5l0.2-0.3c0.4,0.2,1.3,0.4,2.6,0.8l1.2,0.3l0.6,0.1l0.6,0.1h0.5l0.7,0.2l0.4,0.1c0.4,0.2,0.7,0.3,0.7,0.3
			c0.2,0,0.4-0.1,0.7-0.2c0.6-0.3,1-0.5,1.1-0.5c0.1,0,0.3,0.2,0.7,0.6c0.4,0.2,0.7,0.3,0.7,0.4c0.1,0.1,0.2,0.4,0.4,0.9
			c0.2,0.4,0.2,0.6,0.2,0.7c0,0.1-0.1,0.2-0.2,0.4c-0.9,0.2-1.7,0.2-2.5,0.2c-0.2,0-0.7,0.2-1.5,0.4l-0.1,0.3c-0.3,0.1-1,0.3-2,0.8
			c-0.2,0.1-0.3,0.1-0.5,0.1c-0.2,0-0.6-0.1-1.1-0.3c-0.1,0.3-0.1,0.3-0.2,0.4c-0.1,0.3-0.2,0.3-0.2,0.4c0,0.1,0,0.2,0.1,0.3
			c-0.2,0.1-0.3,0.2-0.6,0.3c-0.4,0.1-0.7,0.1-0.9,0.2c-0.2,0.1-0.4,0.1-0.5,0.1c-0.1,0-0.3-0.1-0.5-0.3l-0.2,0.5
			c-0.2,0-0.6,0.2-0.9,0.3c-0.1,0-0.5,0.2-1.4,0.3c-0.4,0.1-0.7,0.3-1.1,0.4c-0.2,0.1-0.3,0.2-0.5,0.2c0,0-0.2-0.1-0.3-0.2
			c-0.2-0.1-0.3-0.1-0.4-0.1c-0.2,0.1-0.2,0.3-0.3,0.7c-0.5,0.1-0.8,0.2-1,0.3l-0.8,0.4c0,0-0.2,0-0.3,0l-0.2-0.3
			c-0.2-0.1-0.5-0.2-0.7-0.2c-0.1,0-0.2,0.1-0.5,0.2c0.1,0.2,0.2,0.3,0.2,0.3c0,0.1-0.1,0.2-0.2,0.3v0.4c-0.2,0.1-0.7,0.3-1.6,0.4
			l-1.8,0.5h-0.7c-0.5,0-0.8,0.3-1,0.8c-0.5,0.1-0.9,0.2-1.2,0.3L12,37.7c0,0-0.2,0-0.6,0.1l-0.2-0.3c-0.3,0.2-0.8,0.4-1.7,0.8
			l-0.1,0.2c-0.6,0.3-1.3,0.4-2,0.6C6.3,39.8,5.7,40,5.6,40c-0.2,0-0.2-0.1-0.4-0.2c0-0.1-0.1-0.3-0.2-0.5C4.7,39.2,4.5,39,4.4,39
			c0,0-0.2-0.3-0.4-0.6l-0.2-0.3c-0.3-0.4-0.6-0.8-0.6-0.8l-0.1-0.3C3.1,37.1,3,36.9,2.8,36.7z"/>
	</g>
	<g>
		<path fill="#FFFFFF" d="M5.2,35.9c0,0-0.2,0-0.3,0l-0.1-0.1v-0.1l-0.7,0.1v-0.9c-0.2-0.1-0.2-0.2-0.2-0.2
			c-0.1-0.1-0.1-0.4-0.2-1.2c-0.1-0.7-0.1-1.2-0.1-1.5v-2.4c0-0.3-0.1-0.5-0.4-0.8c0.2-0.3,0.3-0.4,0.3-0.7c0-0.2-0.1-0.4-0.1-0.7
			c-0.1,0-0.2,0-0.2,0c-0.2,0-0.2-0.1-0.3-0.3c0.2-0.3,0.3-0.4,0.3-0.6v-0.3c0-0.1-0.1-0.4-0.1-0.9c0-0.1,0-0.4-0.1-0.8
			c-0.1,0-0.2-0.1-0.2-0.2c-0.2-0.2-0.2-0.3-0.4-0.3c0.1-0.3,0.2-0.8,0.2-1.1l0.5-0.2L2,22.4l1.1-0.5l-1.6-2l1.6-1.2L2.9,17
			C3,16.7,3,16.4,3,16c-0.2-0.2-0.2-0.3-0.3-0.6l-0.4-0.2V15l0.7-0.3c-1-0.3-1.5-0.4-1.5-0.5h0.1c0.5-0.3,0.8-0.4,0.8-0.5l0.3-1.1
			L3,12v-1.3c-0.2-0.3-0.2-0.4-0.3-0.6H2.5l-0.2,0.5c0-0.2,0.1-0.4,0.1-0.7c0-0.2,0.1-0.3,0.2-0.3c0.2-0.1,0.3-0.3,0.3-0.3
			C3,8.7,3.1,8.2,3.1,7.8c0-1,0-1.9,0.1-2.7c0-0.1,0-0.2,0-0.2s0-0.2-0.1-0.4c0,0,0.1-0.2,0.2-0.4c0.1-0.1,0.1-0.1,0.1-0.1V3
			c0.4-0.8,0.7-1.3,0.7-1.4c0.1-0.1,0.2-0.2,0.4-0.2c0.1,0,0.1,0,0.2,0C4.8,1.2,4.9,1,4.9,0.8V0.5C4.6,0.4,4.4,0.4,4.3,0.4
			c-0.1,0-0.6,0.1-1.5,0.3h-1c-0.1,0-0.2,0-0.3,0c-0.1,0.5-0.4,1-0.7,1.5c0,0,0,0,0,0C0.9,2.4,1,2.8,1,3.1C0.3,3.6,0,4.2,0,4.7
			l0.1,1.6v1.4c0.1,0.4,0.2,0.6,0.2,0.7c0,0.2-0.1,0.4-0.2,0.9c0.2,0.2,0.3,0.3,0.4,0.3c0.1,0,0.2-0.1,0.3-0.2h0.1
			C1,9.7,1.1,9.9,1.1,10.2l-0.7,0.4c0.1,0.2,0.1,0.3,0.1,0.4c0,0,0,0.2,0,0.5l-0.1,1.3l-0.1,0.4v0.8l-0.1,0.6L0.2,15v0.8l0.2,0.9
			c0,0-0.1,0.2-0.2,0.3c0.4,0.2,0.6,0.4,0.6,0.7v0.4l-0.4,0.3v0.3c0,0.3,0.1,0.5,0.1,0.6c0.2,0.6,0.3,1,0.3,1.3
			c-0.2,0.2-0.3,0.4-0.3,0.6v0.7c0,0.1,0.2,0.3,0.4,0.4l0.2-0.1c0.1,0.2,0.1,0.3,0.1,0.3c0,0.1-0.1,0.3-0.2,0.6L0.9,23L0.6,23
			c-0.2,0.3-0.2,0.4-0.2,0.5l0.1,1.1v1.8L0.5,27c0,0.1,0,0.2,0,0.3c0,0.1,0.1,0.3,0.1,0.4c0,0.1,0.1,0.3,0.1,0.4c0,0-0.1,0-0.1,0
			c0,0,0,0,0,0.1c0,0,0,0.1,0,0.1c0.1,0.5,0.2,1.1,0.1,1.6c0.1,0,0.1,0,0.2,0c0.2,0.8,0.2,1.2,0.2,1.3S1.1,31.5,1,31.9
			c0.2,0.2,0.4,0.3,0.5,0.3c0.2,0.1,0.2,0.2,0.3,0.3c0.1,0,0.1,0.1,0.1,0.2c0,0.1-0.1,0.3-0.1,0.5c-0.2-0.1-0.2-0.1-0.2-0.1
			c-0.2,0-0.4,0.2-0.7,0.4v0.8c0,0.4,0.2,0.8,0.3,1.1c0.4,0.4,0.7,1,0.9,1.6c0.1,0.3,0.1,0.5,0.2,0.8c0.5,0,0.7,0.1,0.8,0.1h0.3
			c0.2-0.1,0.4-0.1,0.5-0.1c0.2,0,0.2,0,0.5,0.1c0.2-0.3,0.5-0.4,0.7-0.5c0.2-0.2,0.4-0.3,0.6-0.6h0.3c0.2-0.2,0.3-0.5,0.3-0.8
			C6.1,35.9,5.9,35.9,5.2,35.9z"/>
	</g>
</g>
<g>
</g>
<g>
</g>
<g>
</g>
<g>
</g>
<g>
</g>
<g>
</g>
<g>
</g>
<g>
</g>
<g>
</g>
<g>
</g>
<g>
</g>
<g>
</g>
<g>
</g>
<g>
</g>
<g>
</g>
</svg>
