<svg xmlns="http://www.w3.org/2000/svg" xmlns:xlink="http://www.w3.org/1999/xlink" preserveAspectRatio="xMidYMid" width="15" height="15" viewBox="0 0 15 15">
  <defs>
    <style>

      .cls-2 {
        fill: #b1bdcb;
      }
    </style>
  </defs>
  <path d="M14.714,1.669 C14.714,1.669 8.883,7.500 8.883,7.500 C8.883,7.500 14.714,13.331 14.714,13.331 C15.096,13.713 15.096,14.332 14.714,14.714 C14.332,15.096 13.713,15.096 13.331,14.714 C13.331,14.714 7.500,8.883 7.500,8.883 C7.500,8.883 1.669,14.714 1.669,14.714 C1.287,15.096 0.668,15.096 0.286,14.714 C-0.096,14.332 -0.096,13.713 0.286,13.331 C0.286,13.331 6.117,7.500 6.117,7.500 C6.117,7.500 0.286,1.669 0.286,1.669 C-0.096,1.287 -0.096,0.668 0.286,0.286 C0.668,-0.096 1.287,-0.096 1.669,0.286 C1.669,0.286 7.500,6.117 7.500,6.117 C7.500,6.117 13.331,0.286 13.331,0.286 C13.713,-0.096 14.332,-0.096 14.714,0.286 C15.096,0.668 15.096,1.287 14.714,1.669 Z" id="path-1" class="cls-2" fill-rule="evenodd"/>
</svg>
